<svg width="917" height="917" viewBox="0 0 917 917" fill="none" xmlns="http://www.w3.org/2000/svg">
<path d="M0 458.5C0 205.275 205.275 0 458.5 0C711.725 0 917 205.275 917 458.5C917 711.725 711.725 917 458.5 917C205.275 917 0 711.725 0 458.5ZM458.5 893.225C698.591 893.225 893.225 698.591 893.225 458.5C893.225 218.409 698.591 23.7752 458.5 23.7752C218.409 23.7752 23.7752 218.409 23.7752 458.5C23.7752 698.591 218.409 893.225 458.5 893.225Z" fill="#B5C18E"/>
<path d="M692.655 405.669H506.522V334.89C506.522 325.659 499.041 318.19 489.81 318.19H422.658C418.229 318.193 413.983 319.954 410.852 323.085C407.721 326.216 405.96 330.462 405.957 334.89V405.669H382.22C371.973 405.681 362.148 409.758 354.902 417.004C347.656 424.25 343.58 434.074 343.568 444.322V504.04H731.33V444.322C731.33 423.006 713.982 405.669 692.655 405.669ZM473.11 405.669H439.358V351.602H473.11V405.669ZM547.198 484.043H527.689C524.798 483.95 522.055 482.737 520.043 480.658C518.03 478.58 516.904 475.801 516.904 472.907C516.904 470.014 518.03 467.235 520.043 465.156C522.055 463.078 524.798 461.865 527.689 461.772H547.198C550.151 461.772 552.983 462.945 555.071 465.034C557.16 467.122 558.333 469.954 558.333 472.907C558.333 475.861 557.16 478.693 555.071 480.781C552.983 482.869 550.151 484.043 547.198 484.043Z" fill="#B5C18E"/>
<path d="M343.568 690.492C343.51 692.722 343.899 694.942 344.712 697.019C345.526 699.097 346.747 700.991 348.304 702.589C349.861 704.187 351.722 705.457 353.778 706.325C355.834 707.192 358.043 707.639 360.274 707.639C362.505 707.639 364.714 707.192 366.77 706.325C368.825 705.457 370.687 704.187 372.244 702.589C373.801 700.991 375.022 699.097 375.835 697.019C376.649 694.942 377.038 692.722 376.98 690.492V670.551C378.708 670.79 380.447 671.086 382.232 671.086H526.314V526.31H343.568V690.492Z" fill="#B5C18E"/>
<path d="M548.573 671.086H692.655C694.463 671.086 696.191 670.802 697.93 670.551V690.491C697.872 692.722 698.261 694.942 699.074 697.019C699.888 699.097 701.109 700.991 702.666 702.589C704.223 704.187 706.084 705.457 708.14 706.325C710.196 707.192 712.405 707.639 714.636 707.639C716.867 707.639 719.076 707.192 721.132 706.325C723.187 705.457 725.049 704.187 726.606 702.589C728.163 700.991 729.384 699.097 730.197 697.019C731.011 694.942 731.4 692.722 731.342 690.491V526.322H548.573V671.086Z" fill="#B5C18E"/>
<path d="M311.998 673.791H288.296V365.914H346.376C347.99 365.912 349.585 365.559 351.049 364.88C352.514 364.201 353.813 363.212 354.857 361.981C355.912 360.757 356.684 359.316 357.121 357.76C357.557 356.204 357.645 354.571 357.381 352.977L335.429 218.706C335.002 216.097 333.663 213.725 331.649 212.014C329.635 210.302 327.078 209.362 324.435 209.361H218.744C216.101 209.362 213.544 210.302 211.53 212.014C209.517 213.725 208.177 216.097 207.751 218.706L185.799 352.989C185.538 354.582 185.628 356.214 186.06 357.769C186.493 359.325 187.258 360.768 188.304 361.999C189.35 363.229 190.65 364.218 192.116 364.896C193.582 365.574 195.177 365.925 196.792 365.926H254.884V673.803H231.181C226.749 673.803 222.498 675.563 219.364 678.697C216.23 681.831 214.47 686.082 214.47 690.514C214.47 694.946 216.23 699.197 219.364 702.331C222.498 705.465 226.749 707.226 231.181 707.226H311.998C316.432 707.226 320.684 705.464 323.819 702.329C326.954 699.194 328.716 694.942 328.716 690.509C328.716 686.075 326.954 681.823 323.819 678.688C320.684 675.553 316.432 673.791 311.998 673.791Z" fill="#B5C18E"/>
</svg>
